<svg height="411pt" viewBox="0 -9 411.9973 411" width="411pt" xmlns="http://www.w3.org/2000/svg"><path d="m204 13.378906-181.566406 132.1875h40l161.566406-117.625zm0 0" fill="#edfafa"/><path d="m102.578125 145.566406h-40c3.3125 0 6 2.683594 6 6v230.222656h40v-230.222656c0-3.316406-2.6875-6-6-6zm0 0" fill="#edfafa"/><path d="m175.964844 251.058594 9.796875-17.835938 1 1c1.511719 1.550782 3.738281 2.167969 5.828125 1.617188 2.09375-.550782 3.726562-2.183594 4.277344-4.273438.550781-2.09375-.070313-4.320312-1.621094-5.828125l-12.476563-12.476562 65.730469-65.738281c2.273438-2.351563 2.238281-6.09375-.074219-8.410157-2.316406-2.3125-6.058593-2.347656-8.410156-.074219l-65.734375 65.734376-12.476562-12.476563c-2.351563-2.289063-6.105469-2.261719-8.425782.058594-2.320312 2.320312-2.347656 6.074219-.058594 8.425781l1 1-17.832031 9.800781c-.496093.273438-.949219.613281-1.351562 1.015625l-38.738281 38.738282c-8.511719 8.527343-8.511719 22.335937 0 30.863281l8.949218 8.953125c8.523438 8.523437 22.34375 8.523437 30.863282 0l38.742187-38.738282c.398437-.402343.738281-.859374 1.011719-1.355468zm-48.242188 31.605468c-3.835937 3.835938-10.058594 3.835938-13.894531 0l-8.953125-8.953124c-3.832031-3.839844-3.832031-10.058594 0-13.898438l38.136719-38.136719 20.140625-11.058593 13.773437 13.769531-11.066406 20.140625zm0 0" fill="#ff8a4c"/><path d="m319.398438 209.515625c-.660157-1.972656-2.289063-3.460937-4.3125-3.9375-2.023438-.476563-4.152344.125-5.621094 1.597656l-15.773438 15.773438-16.078125-3.222657-2.984375-16.902343 15.300782-15.199219c1.476562-1.464844 2.085937-3.59375 1.613281-5.621094-.472657-2.027344-1.960938-3.664062-3.933594-4.328125-18.179687-6.183593-38.296875-1.464843-51.828125 12.164063-13.757812 13.84375-18.363281 34.351562-11.839844 52.75l-68.316406 68.324218c-8.34375 8.441407-8.308594 22.035157.085938 30.429688 8.390624 8.394531 21.988281 8.429688 30.425781.085938l68.316406-68.3125c18.21875 6.523437 38.558594 2.066406 52.382813-11.46875 13.824218-13.539063 18.703124-33.785157 12.5625-52.132813zm-20.671876 43.269531c-11.386718 11.316406-28.582031 14.429688-43.210937 7.816406-2.277344-1.042968-4.964844-.558593-6.734375 1.214844l-71.125 71.125c-3.746094 3.695313-9.773438 3.671875-13.496094-.046875-3.722656-3.722656-3.742187-9.75-.046875-13.5l71.125-71.125c1.769531-1.769531 2.253907-4.453125 1.214844-6.730469-5.417969-11.914062-4.421875-25.761718 2.640625-36.777343 7.066406-11.019531 19.238281-17.699219 32.324219-17.742188.683593 0 1.363281.019531 2.042969.054688l-9.515626 9.453125c-1.394531 1.382812-2.023437 3.363281-1.679687 5.296875l4.246094 24.023437c.429687 2.429688 2.304687 4.351563 4.726562 4.835938l23.242188 4.664062c1.964843.394532 3.996093-.21875 5.417969-1.632812l10.078124-10.074219c.5625 10.875-3.53125 21.472656-11.253906 29.148437zm0 0" fill="#ff8a4c"/><path d="m409.53125 147.257812-41.132812-29.949218v-69.824219c0-3.3125-2.6875-6-6-6h-42.230469c-3.3125 0-6 2.6875-6 6v30.34375l-104.636719-76.179687c-2.105469-1.53125-4.957031-1.53125-7.0625 0l-200 145.609374c-2.101562 1.527344-2.976562 4.234376-2.175781 6.707032.804687 2.46875 3.109375 4.140625 5.707031 4.140625h52.578125v230.226562c0 3.3125 2.6875 6 6 6h282.839844c3.3125 0 6-2.6875 6-6v-230.226562h52.582031c2.597656 0 4.898438-1.671875 5.703125-4.140625.804687-2.472656-.074219-5.179688-2.171875-6.707032zm-83.363281-93.773437h30.230469v55.085937l-30.226563-22zm21.25 92.621094c-3.3125 0-6 2.6875-6 6v230.226562h-270.839844v-230.226562c0-3.3125-2.6875-6-6-6h-40.144531l181.566406-132.183594 181.5625 132.183594zm0 0" fill="#16bdca"/></svg>
