<svg xmlns="http://www.w3.org/2000/svg" height="666.667" width="666.667"><defs><clipPath id="a" clipPathUnits="userSpaceOnUse"><path d="M2986.85 1428.2h154.168v349.172H2986.85z"/></clipPath></defs><path d="M0 666.667h666.667V0H0z" fill="#b0d7e7"/><path d="M218.81 438.173h-8.467V414.56h-13.106V338.48h-12.421v66.504h-33.992v-35.874H86.115v47.565c-11.621-25.335-15.518-54.259-10.338-81.67 2.748-14.551 8.062-28.893 17.434-40.355 9.374-11.463 23.154-19.791 37.943-20.52a45.932 45.932 0 012.307-.056c8.916 0 17.908 2.436 26.799 4.872 8.89 2.436 17.68 4.872 26.188 4.872 4.964 0 9.83-.83 14.568-2.971 12.365-5.59 19.528-18.776 23.279-31.817 9.785-34.024 33.141-67.328 62.908-86.743 20.574-13.417 44.893-19.981 69.266-19.981 18.358 0 36.744 3.722 53.591 11.044 39.839 17.313 75.5 61.885 68.63 107.236-1.858 12.254-5.063 24.702-2.709 36.872 7.156 36.964 48.879 32.128 76.255 42.048 16.315 5.91 30.35 17.766 39.161 32.693h-19.582v-10.859H560.7v21.77h-15.688v-35.703h-9.806v46.463h-7.551v-20.322h-47.36v48.583h-18.323v-17.548h-5.328v-62.136h-11.9V212.132c0-9.315-7.552-16.865-16.865-16.865H267.43c-9.315 0-16.866 7.55-16.866 16.865v101.556H218.809v124.485m381.62-15.205h-5.761v-44.57a71.104 71.104 0 011.844 4.298c4.972 12.724 6.241 26.817 3.917 40.272M551.208 220.484c-2.999 0-5.997-.43-8.847-1.301-20.728-6.335-35.484-34.806-30.836-55.85 2.507-11.353 11.45-15.513 21.655-15.513 11.447 0 24.481 5.237 31.788 11.433 6.803 5.771 10.795 14.304 12.67 23.026 2.005 9.321 1.59 19.73-3.942 27.497-5.03 7.061-13.759 10.708-22.488 10.708M142.873 234.196c-6.821-.001-13.575-.933-19.899-3.436-18.143-7.179-29.594-26.983-29.602-46.495-.006-19.512 10.164-38.152 24.684-51.186 11.691-10.495 26.683-18.852 42.683-18.852 1.366 0 2.741.061 4.121.186 44.187 4.031 54.037 66.534 29.227 95.894-9.075 10.74-21.099 20.249-35.366 22.502-5.216.826-10.552 1.387-15.848 1.387" fill="#d4e9f2"/><path d="M86.115 369.11h64.709v35.875h33.992v-66.504h12.421v99.692h21.572V313.688h32.032v49.587h44.454v-17.852h9.15v-17.851h28.764v17.85h14.382v25.787h12.421v-57.521h18.957v50.579h35.954v-21.819h41.722v79.684h23.651v-48.583h47.36v20.322h7.55v-46.463h9.807v35.703h15.688v-21.77h11.114V372.2h22.853v190.457H86.115V369.111" fill="#74c6e2"/><path d="M607.103 422.968H530.08l-.12 33.523h-33.993v-18.318h-12.421v40.571h-21.574v-74.16H429.941v23.94H385.49v-11.97h-9.152v-11.97h-28.762v11.97h-14.383v17.29h-12.42v-38.57h-18.959v33.915H265.86v-14.63h-27.31v53.428h-28.207v-53.428h-57.216v34.478h-7.551v-31.153h-9.805v23.939h-15.69v-39.899h-11.113v56.447h-38.83v101.732h536.845l.12-137.135" fill="#44b1d4"/><path d="M600.704 569.95H65.964a5.42 5.42 0 010-10.84h534.74a5.42 5.42 0 110 10.84" fill="#3766a5"/><path d="M242.02 476.24c-11.784 0-21.336 8.948-21.336 19.984 0 .745.05 1.477.135 2.201a20.207 20.207 0 00-5.53-.769c-10.529 0-19.065 7.995-19.065 17.857 0 5.422 2.59 10.268 6.663 13.543-.572-.057-1.151-.09-1.739-.09-8.916 0-16.144 6.77-16.144 15.12 0 8.351 7.228 15.12 16.144 15.12h62.208v-62.982c0-11.036-9.552-19.984-21.336-19.984M453.632 476.24c11.784 0 21.336 8.948 21.336 19.984 0 .745-.05 1.477-.136 2.201a20.214 20.214 0 015.53-.769c10.529 0 19.063 7.995 19.063 17.857 0 5.422-2.588 10.268-6.66 13.543.571-.057 1.151-.09 1.739-.09 8.915 0 16.141 6.77 16.141 15.12 0 8.351-7.226 15.12-16.141 15.12h-62.208v-62.982c0-11.036 9.552-19.984 21.336-19.984" fill="#169f5a"/><path d="M614.38 569.95H79.638a5.42 5.42 0 010-10.84H614.38a5.42 5.42 0 010 10.84M204.555 263.657h-86.862c-12.373 0-22.497 10.124-22.497 22.498 0 12.373 10.124 22.497 22.497 22.497h58.771l24.56 26.345v-26.345h3.53c12.374 0 22.498-10.124 22.498-22.497 0-12.374-10.124-22.498-22.497-22.498" fill="#3766a5"/><path d="M121.225 279.261l2.239 4.539 5.01.728-3.625 3.532.855 4.99-4.48-2.355-4.48 2.354.855-4.989-3.624-3.532 5.01-.728 2.24-4.539M141.175 279.261l2.24 4.539 5.008.728-3.624 3.532.856 4.99-4.48-2.355-4.48 2.354.854-4.989-3.624-3.532 5.01-.728 2.24-4.539M161.124 279.261l2.24 4.539 5.01.728-3.625 3.532.855 4.99-4.48-2.355-4.48 2.354.856-4.989-3.625-3.532 5.009-.728 2.24-4.539M181.075 279.261l2.238 4.539 5.01.728-3.624 3.532.856 4.99-4.48-2.355-4.482 2.354.856-4.989-3.624-3.532 5.008-.728 2.242-4.539" fill="#e9e011"/><path d="M201.024 279.261l2.24 4.539 5.01.728-3.626 3.532.856 4.99-4.48-2.355-4.48 2.354.855-4.989-3.624-3.532 5.009-.728 2.24-4.539" fill="#fff"/><path d="M427.88 559.356H267.43c-9.315 0-16.866-7.55-16.866-16.865V212.132c0-9.315 7.55-16.865 16.865-16.865H427.88c9.313 0 16.865 7.55 16.865 16.865v330.359c0 9.314-7.552 16.865-16.865 16.865" fill="#334778"/><path d="M268.272 534.434H426.34V220.18H268.272z" fill="#242b42"/><path d="M268.272 534.434H426.34V223.422H268.272z" fill="#94d0ea"/><path d="M370.045 211.752h-53.812a3.228 3.228 0 01-3.218-3.219c0-1.77 1.448-3.22 3.218-3.22h53.812a3.23 3.23 0 013.22 3.22c0 1.771-1.449 3.219-3.22 3.219M376.456 549.51h-55.31a2.479 2.479 0 01-2.471-2.473 2.478 2.478 0 012.472-2.47h55.309a2.478 2.478 0 012.47 2.47 2.478 2.478 0 01-2.47 2.472M388.555 208.533a3.927 3.927 0 11-7.853-.003 3.927 3.927 0 017.853.003" fill="#232b4b"/><path d="M386.225 208.533a1.596 1.596 0 11-3.193.002 1.596 1.596 0 013.193-.002" fill="#334778"/><path d="M386.635 207.375a.848.848 0 11-1.697-.001.848.848 0 011.697 0" fill="#fff"/><g clip-path="url(#a)" transform="matrix(.13333 0 0 -.13333 0 666.667)"><path d="M2986.85 1428.2h154.168v349.172H2986.85z" fill="#63b5d0"/></g><path d="M385.812 487.683h-33.053l30.033-52.7a88.307 88.307 0 003.02-1.259v53.959M334.965 487.683H314.47l-38.66-12.244v-11.144l23.418-39.083c14.908 10.45 32.465 15.99 50.674 15.99a90.295 90.295 0 0010.892-.658c.88-.107 1.756-.225 2.63-.357l-28.458 47.496m14.984-59.49c-16.214 0-31.489-5.201-44.013-14.178v-.002c12.524 8.979 27.799 14.178 44.013 14.18m.052-5.226c-14.461 0-28.99-4.408-41.389-13.418l2.033-3.396 50.379 15.955a71.246 71.246 0 01-11.023.859" fill="#63b5d0"/><path d="M281.77 487.683h-5.96v-1.848l5.96 1.848" fill="#42bc9f"/><path d="M418.803 417.548h-8.407a90.207 90.207 0 008.407-8.968v8.968m-41.575 0h-1.404v-34.027h37.588a70.516 70.516 0 01-9.355 14.335c-7.498 8.913-16.749 15.505-26.829 19.692M417.2 374.14h-18.953v-27.605h1.744l-1.744-6.695v-12.256h17.842a70.939 70.939 0 012.714 9.044v31.688a70.555 70.555 0 01-1.603 5.824M416.576 316.141h-.001a75.814 75.814 0 00-18.328-22.158v-.003a75.808 75.808 0 0118.329 22.161m-5.993 0h-12.336V300.88a70.137 70.137 0 0112.336 15.261m8.22-19.901a89.702 89.702 0 00-11.611-11.739 89.951 89.951 0 00-8.945-6.629v-8.287h20.556v26.655" fill="#63b5d0"/><path d="M385.812 311.239h-1.345c.197-.996.3-2.027.3-3.08 0-7.48-5.186-13.748-12.159-15.403l3.393-5.956a69.978 69.978 0 019.811 4.785v19.654m0-25.6a75.901 75.901 0 00-7.215-3.395h.002a75.695 75.695 0 017.213 3.393v.002m0-14.498a57.06 57.06 0 00-.71-.309l.71-1.247v1.556" fill="#42bc9f"/><path d="M303.455 324.097l-15.635-4.952a70.617 70.617 0 018.23-12.14c11.96-14.218 28.374-22.524 45.509-24.596a71.033 71.033 0 0120.206.447l-17.006 28.383h-37.956l-3.348 12.858m-25.592-23.325l32.782-54.716 61.499 19.477-.456.762a88.435 88.435 0 00-21.484-2.638 90.77 90.77 0 00-7.781.336c-23.632 2.046-45.036 13.154-60.298 31.299a89.892 89.892 0 00-4.262 5.48m72.286-24.104M306.16 374.14h-23.232a71.12 71.12 0 01-3.395-23.277h26.627v23.277m-28.696 0a76.333 76.333 0 000 0" fill="#63b5d0"/><path d="M298.77 342.092h-18.505a70.358 70.358 0 013.506-13.888l17.224 5.34-2.226 8.548" fill="#42bc9f"/><path d="M418.803 257.45h-45.091v-27.16h45.09v27.16m7.538-34.026h-52.628v-.001h52.628M364.83 414.559l-52.08-16.471H296.24a69.918 69.918 0 01-9.532-14.567h45.041v.48h33.081v30.558m-75.24-16.471h-.001a75.236 75.236 0 00.001 0M268.272 458.37v-53.035 53.036m7.537-13.259v-39.777h2.927a89.296 89.296 0 0012.147 13.264l-15.074 26.513m21.678-38.13a71.7 71.7 0 01-1.662-1.647h.003a77.248 77.248 0 001.659 1.646v.002M364.83 251.579l-48.28-15.758v-5.53h48.28v21.288m0-28.155h-48.28v-.001h48.28M268.272 295.893v-72.47h37.361v.001H268.272V295.893m7.537-12.402v-53.2h29.824v4.126l-29.824 49.074" fill="#63b5d0"/><path d="M275.81 487.683V230.29h142.993v257.392H275.809m149.079-264.259H268.272V534.239H426.34V223.424h-1.452" fill="#fff"/><path d="M372.464 510.961h-47.325c-4.311 0-7.839-3.529-7.839-7.84v-1.652c0-4.313 3.528-7.84 7.839-7.84h47.325c4.31 0 7.84 3.527 7.84 7.84v1.652c0 4.311-3.53 7.84-7.84 7.84" fill="#2d8aac"/><path d="M372.464 509.875h-47.325c-4.311 0-7.839-3.528-7.839-7.84v-1.652c0-4.312 3.528-7.84 7.839-7.84h47.325c4.31 0 7.84 3.528 7.84 7.84v1.652c0 4.312-3.53 7.84-7.84 7.84" fill="#44b1d4"/><text style="-inkscape-font-specification:OpenSans-Extrabold" transform="matrix(1.33333 0 0 1.33333 329.161 504.697)" font-weight="800" font-size="5.413" font-family="OpenSans" fill="#fff"><tspan y="0" x="0 3.6484158 7.7461176 11.340403 12.747804 17.259773 21.57324 27.197432">BUY NOW!</tspan></text><path d="M426.34 517.723H268.272v16.711H426.34v-16.711" fill="#232b4b"/><path d="M315.795 526.215l-.216.374 5.89 3.402v-7.551l-6.541 3.775.65.374.217-.374.217.374 4.59-2.649v4.55l-4.59-2.65-.217.375.217.374-.217-.374M350.707 526.215h-.434a2.597 2.597 0 01-2.592 2.593 2.597 2.597 0 01-2.593-2.593 2.597 2.597 0 012.593-2.592 2.597 2.597 0 012.592 2.592h.867a3.459 3.459 0 10-6.92.003 3.459 3.459 0 006.92-.003h-.433M381.796 528.888v-.433h-4.91v-4.479h4.477v4.912h.433v-.433.433h.433v-5.779h-6.21v6.212h6.21v-.433h-.433" fill="#fff"/><path d="M529.044 281.308l-32.3 65.895 1.459 3.66 33.465-68.27-2.624-1.285" fill="#e7921d"/><path d="M405.263 382.627c0 3.266-24.098 5.913-53.826 5.913-29.726 0-53.825-2.647-53.825-5.913 0-3.266 24.099-5.914 53.825-5.914 29.728 0 53.826 2.648 53.826 5.914" fill="#3766a5"/><path d="M306.16 380.504h86.323v-37.747H306.16z" fill="#e9b416"/><path d="M392.483 350.595h-26.627v-4.06h26.627v4.06m-60.735 0H306.16v-4.06h25.588v4.06" fill="#e38519"/><path d="M399.99 346.535H297.613l9.19-35.296H390.8l9.19 35.296" fill="#2a3355"/><path d="M365.856 335.999l-17.055-11.695-17.053 11.695V384h34.108V336" fill="#e9ba23"/><path d="M355.687 363.275h-12.539v19.33h12.539v-19.33" fill="#fff"/><path d="M354.33 364.495h-9.827v18.11h9.828v-18.11" fill="#334778"/><path d="M347.472 374.427a.877.877 0 11-1.754 0 .877.877 0 011.754 0M342.236 348.67h14.172v-14.172h-14.172z" fill="#fff"/><path d="M355.343 347.605H343.3v-12.041h12.042v12.041" fill="#44b1d4"/><path d="M350.472 348.67h-2.127V334.5h2.127v14.172M328.096 368.736h-16.77v-11.744h16.77v11.744" fill="#fff"/><path d="M326.835 367.853h-14.248v-9.978h14.248v9.978" fill="#44b1d4"/><path d="M320.659 368.736h-1.691v-11.744h1.69v11.744M387.74 368.736h-16.77v-11.744h16.77v11.744" fill="#fff"/><path d="M386.479 367.853H372.23v-9.978h14.248v9.978" fill="#44b1d4"/><path d="M380.304 368.736h-1.692v-11.744h1.692v11.744M358.304 381.81h-17.895v2.191h17.895v-2.19" fill="#fff"/><path d="M331.748 341.43v-5.431l17.053-11.695 17.055 11.695v4.43l-16.35-11.405-17.758 12.405" fill="#e48b18"/><path d="M328.35 339.9l21.051-14.437 21.054 14.437 2.809-4.097-23.863-16.366-23.861 16.366 2.81 4.097" fill="#334778"/><path d="M328.939 373.079c-1.552 0-2.81 1.176-2.81 2.629l.018.29a2.66 2.66 0 00-.728-.1c-1.387 0-2.51 1.053-2.51 2.351 0 .714.342 1.351.876 1.782l-.228-.011c-1.173 0-2.125.892-2.125 1.99 0 1.1.952 1.991 2.125 1.991h8.191v-8.293c0-1.453-1.259-2.63-2.81-2.63M368.664 373.079c1.552 0 2.81 1.176 2.81 2.629l-.018.29a2.66 2.66 0 01.728-.1c1.387 0 2.51 1.053 2.51 2.351 0 .714-.34 1.351-.878 1.782l.23-.011c1.173 0 2.125.892 2.125 1.99 0 1.1-.952 1.991-2.126 1.991h-8.189v-8.293c0-1.453 1.257-2.63 2.808-2.63" fill="#169f5a"/><path d="M409.925 413.17l39.679 33.375 7.879-9.366-39.679-33.375-7.879 9.365" fill="#b3b6a1"/><path d="M424.775 395.516l-6.971 8.288 39.679 33.375 6.97-8.287-39.678-33.376" fill="#c7abae"/><path d="M532.792 490.801c3.668-4.361 3.107-10.87-1.255-14.538l-54.728-46.034c-4.36-3.668-10.868-3.105-14.536 1.255l-4.79 5.695L528 496.495l4.791-5.694" fill="#263258"/><path d="M457.483 437.179l-6.122 7.28c-3.668 4.36-3.108 10.868 1.254 14.536l54.726 46.033c4.36 3.668 10.87 3.108 14.538-1.255l6.122-7.278-70.518-59.316" fill="#232b4b"/><path d="M359.153 427.637c-41.534 5.026-79.28-24.572-84.305-66.108-5.027-41.533 24.57-79.28 66.107-84.304 41.534-5.026 79.28 24.571 84.305 66.106 5.025 41.534-24.57 79.28-66.107 84.306m48.039-143.136c-18.145-15.262-41.147-22.545-64.77-20.508-23.631 2.046-45.035 13.154-60.297 31.299-15.264 18.144-22.545 41.147-20.508 64.77 2.039 23.622 13.154 45.035 31.298 60.297 18.145 15.264 41.148 22.546 64.77 20.506a86.052 86.052 0 003.108-.321c22.388-2.708 42.6-13.63 57.19-30.976 15.264-18.145 22.545-41.147 20.506-64.768-2.037-23.623-13.152-45.037-31.297-60.299" fill="#263258"/><path d="M404.057 397.856c-11.96 14.217-28.373 22.524-45.508 24.596-18.749 2.267-38.36-2.93-53.92-16.019-29.777-25.046-33.626-69.649-8.578-99.428 11.958-14.218 28.373-22.524 45.508-24.596 18.749-2.269 38.36 2.93 53.92 16.018 29.777 25.046 33.625 69.65 8.578 99.429m-63.102-120.63c-41.536 5.023-71.134 42.77-66.107 84.303 5.025 41.536 42.77 71.134 84.305 66.108 41.536-5.026 71.132-42.772 66.107-84.306-5.025-41.535-42.77-71.132-84.305-66.106" fill="#232b4b"/><path d="M362.073 311.239h-8.668c-.197-.996-.3-2.027-.3-3.08 0-8.744 7.09-15.831 15.831-15.831 1.264 0 2.493.148 3.672.428l-10.535 18.483" fill="#c4e5f4"/><path d="M384.467 311.239h-22.394l10.535-18.483c6.973 1.655 12.159 7.923 12.159 15.403 0 1.053-.103 2.084-.3 3.08" fill="#99dcc4"/><path d="M368.936 323.988c-7.688 0-14.097-5.481-15.53-12.75h31.061c-1.434 7.269-7.842 12.75-15.531 12.75" fill="#7d95a5"/><path d="M559.395 272.095c-4.97 9.894-17.528 13.632-28.051 8.348-10.525-5.284-15.028-17.59-10.059-27.484 4.967-9.895 17.527-13.632 28.051-8.348 10.524 5.284 15.025 17.589 10.059 27.484zm-8.81-30.162c-12.221-5.99-26.648-1.626-32.224 9.75-4.222 8.614-2.154 18.774 4.403 25.802l-18.167 37.06 1.18 4.992-8.006 4.348 1.685 9.23-7.38 2.388 4.668 11.7 32.3-65.896 2.624 1.286-33.465 68.27.06.15c1.176 2.948 5.402 3.291 6.746.548l32.418-66.134c10.286 1.806 20.66-2.808 25.19-12.05 5.578-11.376.19-25.454-12.032-31.444" fill="#e9b416"/><path d="M551.673 256.361c-1.657 3.384-5.948 4.682-9.582 2.9-3.634-1.781-5.235-5.966-3.578-9.349 1.659-3.384 5.95-4.681 9.583-2.9 3.635 1.781 5.236 5.968 3.577 9.35zm-2.337-11.75c-10.524-5.284-23.084-1.547-28.05 8.348-4.97 9.894-.467 22.2 10.058 27.484 10.523 5.284 23.081 1.546 28.05-8.348 4.967-9.895.466-22.2-10.058-27.484" fill="#e7921d"/><path d="M338.939 121.33c0-6.925 5.614-12.538 12.538-12.538V92.505c-15.92 0-28.825 12.904-28.825 28.826 0 15.92 28.825 51.254 28.825 51.254v-38.717c-6.924 0-12.538-5.613-12.538-12.537" fill="#263258"/><path d="M351.477 92.505v16.287c6.926 0 12.539 5.613 12.539 12.539 0 6.924-5.613 12.537-12.539 12.537v38.717s28.827-35.334 28.827-51.254c0-15.922-12.907-28.826-28.827-28.826" fill="#334778"/></svg>