<svg height="498pt" viewBox="0 -11 498.40099 498" width="498pt" xmlns="http://www.w3.org/2000/svg"><path d="m84.5 88.035156v-14.5c.019531-12.835937 8.125-24.265625 20.234375-28.523437-3.210937-1.132813-6.59375-1.710938-10-1.707031-16.691406.015624-30.214844 13.542968-30.234375 30.234374v14.5c-.003906 9.800782 4.746094 18.996094 12.742188 24.667969 7.996093 5.667969 18.242187 7.105469 27.492187 3.859375-12.109375-4.261718-20.21875-15.695312-20.234375-28.53125zm0 0" fill="#edfafa"/><path d="m32.199219 271.933594c0-.914063-.191407-91.417969-.191407-92.667969.003907-17.476563 14.171876-31.644531 31.648438-31.644531h-20c-17.480469-.003906-31.652344 14.164062-31.65625 31.644531 0 1.25.191406 91.753906.191406 92.667969.007813 7.722656 6.265625 13.984375 13.988282 13.992187h.148437c3.707031-.054687 7.234375-1.613281 9.773437-4.316406-2.503906-2.597656-3.902343-6.066406-3.902343-9.675781zm0 0" fill="#edfafa"/><path d="m77.648438 460.449219-5.363282-181.355469-.117187-7.800781c-.023438-3.3125-2.730469-5.980469-6.042969-5.957031-3.316406.027343-5.980469 2.734374-5.957031 6.046874.027343 5.421876-2.945313 10.414063-7.726563 12.976563l5.203125 176.089844c.332031 2.621093 2.5625 4.582031 5.203125 4.570312h20c-2.636718.007813-4.867187-1.953125-5.199218-4.570312zm0 0" fill="#edfafa"/><path d="m136.96875 88.035156v-14.5c-.113281-23.246094-18.988281-42.03125-42.234375-42.03125s-42.121094 18.785156-42.234375 42.03125v14.5c.113281 23.246094 18.988281 42.027344 42.234375 42.027344s42.121094-18.78125 42.234375-42.027344zm-72.46875 0v-14.5c.023438-16.6875 13.550781-30.207031 30.234375-30.226562 16.6875.019531 30.214844 13.542968 30.234375 30.230468v14.5c-.09375 16.628907-13.601562 30.0625-30.234375 30.0625-16.628906 0-30.136719-13.433593-30.234375-30.0625zm0 0" fill="#16bdca"/><path d="m26.191406 297.925781h.289063c5.089843-.058593 10.042969-1.648437 14.21875-4.5625l4.957031 167.683594c0 .136719.011719.273437.023438.40625.839843 8.847656 8.285156 15.597656 17.171874 15.566406h66.855469c8.898438.03125 16.351563-6.738281 17.171875-15.597656.011719-.136719.019532-.273437.023438-.410156l4.617187-167.355469c7.984375 5.253906 18.214844 5.703125 26.628907 1.164062 8.417968-4.535156 13.664062-13.328124 13.660156-22.890624v-88.570313c2.25-23.878906-15.191406-45.097656-39.050782-47.515625-1.03125-.101562-12.210937-.175781-33.230468-.21875-2.148438.011719-4.132813 1.15625-5.214844 3.011719l-18.175781 31.683593-17.199219-31.570312c-1.050781-1.925781-3.070312-3.128906-5.269531-3.128906h-30.015625c-24.105469 0-43.64843775 19.539062-43.652344 43.644531 0 1.261719.183594 88.960937.191406 92.683594.019532 14.339843 11.644532 25.960937 25.988282 25.976562zm-13.992187-25.992187c0-.914063-.191407-91.417969-.191407-92.667969.003907-17.476563 14.171876-31.644531 31.648438-31.644531h26.445312l20.628907 37.863281c1.042969 1.90625 3.03125 3.105469 5.203125 3.128906 2.175781.023438 4.191406-1.128906 5.269531-3.015625l21.78125-37.964844c11.394531.027344 26.816406.089844 28.675781.164063 17.335938 1.820313 29.9375 17.320313 28.179688 34.664063-.023438.199218-.03125.398437-.03125.605468v88.863282c-.058594 7.59375-6.160156 13.757812-13.753906 13.894531-7.59375.140625-13.914063-5.800781-14.246094-13.386719l-.011719-.601562c-.027344-3.3125-2.734375-5.976563-6.050781-5.949219-3.3125.027343-5.976563 2.738281-5.949219 6.050781 0 .269531 0 .539062.011719.808594l.105468 6.410156-5 181.289062c-.328124 2.625-2.5625 4.59375-5.207031 4.582032h-66.855469c-2.640624.007812-4.871093-1.953125-5.203124-4.570313l-5.363282-181.359375-.117187-7.796875c-.023438-3.316406-2.730469-5.980469-6.042969-5.957031-3.316406.027344-5.980469 2.730469-5.957031 6.046875 0 7.933594-6.199219 14.457031-13.835938 14.542969h-.148437c-7.722656-.011719-13.980469-6.277344-13.984375-14zm0 0" fill="#16bdca"/><path d="m459.453125 350.644531-32.253906-23.484375v-51.664062c0-3.3125-2.683594-6-6-6h-26.625c-3.316407 0-6 2.6875-6 6v23.546875l-47.675781-34.710938c-2.101563-1.53125-4.957032-1.53125-7.0625 0l-118.558594 86.3125c-2.628906 1.96875-3.1875 5.683594-1.257813 8.335938 1.933594 2.65625 5.640625 3.261719 8.320313 1.363281l25.195312-18.339844v129.015625c0 3.316407 2.683594 6 6 6h167.664063c3.316406 0 6-2.683593 6-6v-129.015625l25.195312 18.339844c2.679688 1.898438 6.386719 1.292969 8.320313-1.363281 1.929687-2.652344 1.371094-6.367188-1.257813-8.335938zm-58.878906-69.148437h14.625v36.929687l-14.621094-10.648437zm-68.859375 183.523437h-24.480469v-53.769531h24.480469zm83.480468 0h-71.480468v-59.769531c0-3.3125-2.6875-6-6-6h-36.480469c-3.3125 0-6 2.6875-6 6v59.769531h-35.699219v-131.753906l77.832032-56.664063 77.832031 56.664063zm0 0" fill="#16bdca"/><path d="m364.367188 408.308594h36.476562c3.316406 0 6-2.683594 6-6v-27.359375c0-3.3125-2.683594-6-6-6h-36.476562c-3.316407 0-6 2.6875-6 6v27.359375c0 3.316406 2.683593 6 6 6zm6-27.355469h24.476562v15.355469h-24.476562zm0 0" fill="#16bdca"/><g fill="#ff8a4c"><path d="m337.117188 243.410156c-3.316407 0-6 2.6875-6 6v.273438c0 3.3125 2.683593 6 6 6 3.3125 0 6-2.6875 6-6v-.273438c0-3.3125-2.6875-6-6-6zm0 0"/><path d="m343.117188 206.691406c0-3.316406-2.6875-6-6-6-3.316407 0-6 2.683594-6 6v29.335938c0 3.316406 2.683593 6 6 6 3.3125 0 6-2.683594 6-6zm0 0"/><path d="m343.117188 161.425781c0-3.316406-2.6875-6-6-6-3.316407 0-6 2.683594-6 6v29.019531c0 3.316407 2.683593 6 6 6 3.3125 0 6-2.683593 6-6zm0 0"/><path d="m309.714844 233.808594c-3.3125 0-6 2.6875-6 6v1.625c0 3.316406 2.6875 6 6 6 3.316406 0 6-2.683594 6-6v-1.625c0-3.3125-2.683594-6-6-6zm0 0"/><path d="m315.714844 175.238281c0-3.3125-2.683594-6-6-6-3.3125 0-6 2.6875-6 6v47.605469c0 3.316406 2.6875 6 6 6 3.316406 0 6-2.683594 6-6zm0 0"/><path d="m362.699219 205.023438c-3.3125 0-6 2.6875-6 6v18.75c0 3.3125 2.6875 6 6 6 3.316406 0 6-2.6875 6-6v-18.75c0-3.3125-2.683594-6-6-6zm0 0"/><path d="m368.699219 167.636719c0-3.316407-2.683594-6-6-6-3.3125 0-6 2.683593-6 6v26.25c0 3.3125 2.6875 6 6 6 3.316406 0 6-2.6875 6-6zm0 0"/><path d="m286.300781 112.195312c.996094 2.210938 3.230469 3.605469 5.65625 3.523438l11.351563-.359375.410156 46.882813c.027344 3.292968 2.707031 5.949218 6 5.949218h.050781c3.316407-.03125 5.976563-2.742187 5.949219-6.054687l-.464844-53.019531c-.015625-1.617188-.679687-3.15625-1.84375-4.277344-1.164062-1.117188-2.730468-1.71875-4.347656-1.667969l-3.003906.097656 30.132812-32.105469 32.109375 30.128907-5.789062.183593c-3.238281.105469-5.8125 2.761719-5.8125 6v45.433594c0 3.3125 2.6875 6 6 6 3.316406 0 6-2.6875 6-6v-39.621094l14.457031-.457031c2.425781-.078125 4.566406-1.605469 5.425781-3.878906.855469-2.269531.261719-4.832031-1.507812-6.492187l-47.046875-44.15625c-2.417969-2.269532-6.214844-2.148438-8.480469.269531l-44.15625 47.042969c-1.660156 1.769531-2.089844 4.367187-1.089844 6.578124zm0 0"/><path d="m440.554688 295.28125c0 3.3125 2.683593 6 6 6 3.3125 0 6-2.6875 6-6v-9.027344c0-3.316406-2.6875-6-6-6-3.316407 0-6 2.683594-6 6zm0 0"/><path d="m440.554688 266c0 3.3125 2.683593 6 6 6 3.3125 0 6-2.6875 6-6v-73.066406c0-3.316406-2.6875-6-6-6-3.316407 0-6 2.683594-6 6zm0 0"/><path d="m440.554688 179.550781c0 3.3125 2.683593 6 6 6 3.3125 0 6-2.6875 6-6v-9.339843c0-3.3125-2.6875-6-6-6-3.316407 0-6 2.6875-6 6zm0 0"/><path d="m446.554688 159.96875c3.3125 0 6-2.6875 6-6v-29.023438c0-3.3125-2.6875-6-6-6-3.316407 0-6 2.6875-6 6v29.023438c0 3.3125 2.683593 6 6 6zm0 0"/><path d="m413.152344 233.335938c0 3.3125 2.6875 6 6 6s6-2.6875 6-6v-1.015626c0-3.316406-2.6875-6-6-6s-6 2.683594-6 6zm0 0"/><path d="m419.152344 222.367188c3.3125 0 6-2.6875 6-6v-77.605469c0-3.316407-2.6875-6-6-6s-6 2.683593-6 6v77.605469c0 3.3125 2.6875 6 6 6zm0 0"/><path d="m472.132812 168.546875c-3.3125 0-6 2.683594-6 6v58.316406c0 3.3125 2.6875 6 6 6 3.316407 0 6-2.6875 6-6v-58.316406c0-3.316406-2.683593-6-6-6zm0 0"/><path d="m472.132812 248.394531c-3.3125 0-6 2.6875-6 6v50.816407c0 3.3125 2.6875 6 6 6 3.316407 0 6-2.6875 6-6v-50.816407c0-3.3125-2.683593-6-6-6zm0 0"/><path d="m472.132812 320.910156c-3.3125 0-6 2.6875-6 6v3.175782c0 3.3125 2.6875 6 6 6 3.316407 0 6-2.6875 6-6v-3.175782c0-3.3125-2.683593-6-6-6zm0 0"/><path d="m472.132812 125.15625c-3.3125 0-6 2.6875-6 6v26.253906c0 3.3125 2.6875 6 6 6 3.316407 0 6-2.6875 6-6v-26.253906c0-3.3125-2.683593-6-6-6zm0 0"/><path d="m449.460938 1.824219c-2.414063-2.265625-6.210938-2.144531-8.480469.269531l-44.152344 47.042969c-1.660156 1.769531-2.089844 4.367187-1.089844 6.574219 1 2.210937 3.230469 3.601562 5.65625 3.527343l11.335938-.359375.421875 59.574219c.023437 3.296875 2.703125 5.957031 6 5.957031h.042968c3.3125-.023437 5.980469-2.726562 5.957032-6.039062l-.464844-65.726563c-.011719-1.617187-.671875-3.160156-1.839844-4.28125-1.164062-1.121093-2.734375-1.722656-4.347656-1.671875l-3.007812.09375 30.132812-32.105468 32.109375 30.132812-5.789063.183594c-3.238281.101562-5.8125 2.757812-5.808593 6v65.433594c0 3.3125 2.683593 6 6 6 3.3125 0 6-2.6875 6-6v-59.621094l14.453125-.457032c2.425781-.074218 4.566406-1.605468 5.425781-3.875.855469-2.273437.261719-4.835937-1.507813-6.496093zm0 0"/><path d="m237.75 287.25c-3.3125 0-6 2.6875-6 6v2.03125c0 3.3125 2.6875 6 6 6s6-2.6875 6-6v-2.03125c0-3.3125-2.6875-6-6-6zm0 0"/><path d="m237.75 237.167969c-3.3125 0-6 2.6875-6 6v27.578125c0 3.3125 2.6875 6 6 6s6-2.6875 6-6v-27.578125c0-3.3125-2.6875-6-6-6zm0 0"/><path d="m237.75 210.140625c-3.3125 0-6 2.6875-6 6v10.785156c0 3.3125 2.6875 6 6 6s6-2.6875 6-6v-10.785156c0-3.3125-2.6875-6-6-6zm0 0"/><path d="m210.351562 323.496094c-3.316406 0-6 2.683594-6 6v3.140625c0 3.3125 2.683594 6 6 6 3.3125 0 6-2.6875 6-6v-3.140625c0-3.316406-2.6875-6-6-6zm0 0"/><path d="m210.351562 270.292969c-3.316406 0-6 2.6875-6 6v35.671875c0 3.3125 2.683594 6 6 6 3.3125 0 6-2.6875 6-6v-35.671875c0-3.3125-2.6875-6-6-6zm0 0"/><path d="m210.351562 184.742188c-3.316406 0-6 2.6875-6 6v68.582031c0 3.3125 2.683594 6 6 6 3.3125 0 6-2.6875 6-6v-68.582031c0-3.3125-2.6875-6-6-6zm0 0"/><path d="m263.332031 259.742188c-3.316406 0-6 2.6875-6 6v.511718c0 3.3125 2.683594 6 6 6 3.3125 0 6-2.6875 6-6v-.511718c0-3.3125-2.6875-6-6-6zm0 0"/><path d="m263.332031 175.316406c-3.316406 0-6 2.683594-6 6v67.289063c0 3.3125 2.683594 6 6 6 3.3125 0 6-2.6875 6-6v-67.289063c0-3.316406-2.6875-6-6-6zm0 0"/><path d="m289.210938 52.472656c.855468-2.269531.261718-4.832031-1.507813-6.496094l-47.042969-44.152343c-2.417968-2.265625-6.214844-2.144531-8.480468.269531l-44.15625 47.042969c-1.65625 1.769531-2.085938 4.367187-1.089844 6.574219 1 2.210937 3.230468 3.601562 5.65625 3.527343l11.320312-.359375.441406 112.449219c.011719 3.304687 2.695313 5.976563 6 5.976563h.023438c3.3125-.011719 5.988281-2.707032 5.976562-6.023438l-.464843-118.617188c-.007813-1.621093-.667969-3.167968-1.832031-4.292968-1.167969-1.125-2.738282-1.730469-4.359376-1.679688l-3.007812.09375 30.136719-32.105468 32.105469 30.132812-5.789063.183594c-3.238281.101562-5.808594 2.757812-5.808594 6v111.03125c0 3.3125 2.6875 6 6 6s6-2.6875 6-6v-105.21875l14.457031-.457032c2.425782-.078124 4.566407-1.609374 5.421876-3.878906zm0 0"/></g></svg>
