<svg height="482pt" viewBox="0 -7 482 482" width="482pt" xmlns="http://www.w3.org/2000/svg"><path d="m12 74.429688h16.675781v318.378906h-16.675781zm0 0" fill="#edfafa"/><path d="m194.316406 117.921875h16.675782v274.886719h-16.675782zm0 0" fill="#edfafa"/><g fill="#16bdca"><path d="m189.601562 404.804688h67.488282v-12h-61.488282v-273.710938h97.238282v128.101562h12v-134.101562c0-3.3125-2.6875-6-6-6h-14.453125v-30.472656c0-3.3125-2.6875-6-6-6h-23.109375v-13.78125c0-3.3125-2.6875-6-6-6s-6 2.6875-6 6v13.78125h-23.65625c-3.3125 0-6 2.6875-6 6v30.472656h-18.019532v-38.664062c0-3.3125-2.6875-6-6-6h-26.132812v-30.964844c0-3.316406-2.6875-6-6-6h-54.742188v-19.464844c0-3.3125-2.683593-6-6-6-3.3125 0-6 2.6875-6 6v19.464844h-52.597656c-3.316406 0-6 2.683594-6 6v30.964844h-26.128906c-3.3125 0-6 2.6875-6 6v330.375c0 3.316406 2.6875 6 6 6zm36.023438-322.183594h46.765625v24.472656h-46.769531zm-181.496094-45.15625h107.339844v24.964844h-107.339844zm84.390625 355.339844h-25.792969v-61.109376h25.792969zm-37.792969 0h-23.648437v-61.109376h23.648437zm92.871094 0h-43.078125v-67.109376c0-3.3125-2.6875-6-6-6h-73.441406c-3.3125 0-6 2.6875-6 6v67.109376h-43.078125v-318.375h171.601562zm0 0"/><path d="m152.371094 157.109375h-109.105469c-3.3125 0-6 2.683594-6 6 0 3.3125 2.6875 6 6 6h109.101563c3.3125 0 6-2.6875 6-6 0-3.316406-2.6875-6-6-6zm0 0"/><path d="m152.371094 207.296875h-109.105469c-3.3125 0-6 2.683594-6 6 0 3.3125 2.6875 6 6 6h109.101563c3.3125 0 6-2.6875 6-6 0-3.316406-2.6875-6-6-6zm0 0"/><path d="m152.371094 257.484375h-109.105469c-3.3125 0-6 2.683594-6 6 0 3.3125 2.6875 6 6 6h109.101563c3.3125 0 6-2.6875 6-6 0-3.316406-2.6875-6-6-6zm0 0"/><path d="m152.371094 106.921875h-109.105469c-3.3125 0-6 2.683594-6 6 0 3.3125 2.6875 6 6 6h109.101563c3.3125 0 6-2.6875 6-6 0-3.316406-2.6875-6-6-6zm0 0"/><path d="m274.878906 262.390625c0-3.3125-2.683594-6-6-6h-48.863281c-3.316406 0-6 2.6875-6 6s2.683594 6 6 6h48.863281c3.316406 0 6-2.6875 6-6zm0 0"/><path d="m254.382812 303.851562c0-3.316406-2.6875-6-6-6h-28.367187c-3.316406 0-6 2.683594-6 6 0 3.3125 2.683594 6 6 6h28.367187c3.3125 0 6-2.6875 6-6zm0 0"/><path d="m220.015625 342.582031c-3.316406 0-6 2.6875-6 6 0 3.316407 2.683594 6 6 6h20.554687c3.316407 0 6-2.683593 6-6 0-3.3125-2.683593-6-6-6zm0 0"/><path d="m220.015625 223.660156h46.914063c3.3125 0 6-2.6875 6-6s-2.6875-6-6-6h-46.914063c-3.316406 0-6 2.6875-6 6s2.683594 6 6 6zm0 0"/><path d="m220.015625 180.019531h46.914063c3.3125 0 6-2.6875 6-6 0-3.316406-2.6875-6-6-6h-46.914063c-3.316406 0-6 2.683594-6 6 0 3.3125 2.683594 6 6 6zm0 0"/></g><path d="m358.867188 221.671875c-68.007813 0-123.136719 55.128906-123.136719 123.132813 0 68.007812 55.128906 123.136718 123.132812 123.136718 68.003907 0 123.136719-55.128906 123.136719-123.132812-.074219-67.972656-55.160156-123.058594-123.132812-123.136719zm0 234.269531c-61.378907 0-111.136719-49.757812-111.136719-111.136718 0-61.378907 49.757812-111.132813 111.136719-111.132813 61.378906 0 111.132812 49.757813 111.132812 111.136719-.070312 61.347656-49.785156 111.066406-111.132812 111.136718zm0 0" fill="#ff8a4c"/><path d="m358.867188 290.441406c14.492187.019532 26.238281 11.765625 26.253906 26.257813 0 3.316406 2.6875 6 6 6 3.316406 0 6-2.683594 6-6-.023438-18.800781-13.6875-34.808594-32.253906-37.78125v-12.199219c0-3.316406-2.6875-6-6-6-3.316407 0-6 2.683594-6 6v12.199219c-19.714844 3.128906-33.710938 20.890625-32.140626 40.792969 1.570313 19.898437 18.175782 35.246093 38.140626 35.246093 14.433593.007813 26.152343 11.664063 26.238281 26.097657.085937 14.433593-11.496094 26.230468-25.929688 26.40625-.101562-.003907-.199219-.015626-.308593-.015626-.109376 0-.207032.011719-.308594.015626-14.371094-.183594-25.929688-11.875-25.949219-26.246094 0-3.316406-2.6875-6-6-6s-6 2.683594-6 6c.023437 18.800781 13.691406 34.808594 32.257813 37.78125v13.664062c0 3.3125 2.683593 6 6 6 3.3125 0 6-2.6875 6-6v-13.664062c19.714843-3.128906 33.710937-20.894532 32.140624-40.792969-1.570312-19.902344-18.179687-35.25-38.140624-35.246094-9.421876.058594-18.148438-4.933593-22.875-13.082031-4.726563-8.148438-4.726563-18.203125 0-26.351562 4.726562-8.148438 13.453124-13.136719 22.875-13.082032zm0 0" fill="#ff8a4c"/></svg>
